<svg version="1.1" id="Layer_1" xmlns="http://www.w3.org/2000/svg" xmlns:xlink="http://www.w3.org/1999/xlink" x="0px" y="0px"
	 width="100%" viewBox="0 0 1080 1080" enable-background="new 0 0 1080 1080" xml:space="preserve">
<path fill="#708D81" opacity="1.000000" stroke="none" 
	d="
M493.000000,1081.000000 
	C328.685577,1081.000000 164.871140,1081.000000 1.028358,1081.000000 
	C1.028358,721.060425 1.028358,361.120911 1.028358,1.090671 
	C360.898010,1.090671 720.796082,1.090671 1080.847046,1.090671 
	C1080.847046,360.999939 1080.847046,720.999939 1080.847046,1081.000000 
	C885.120422,1081.000000 689.310242,1081.000000 493.000000,1081.000000 
M271.580872,265.246338 
	C271.239777,265.420563 271.150665,265.681061 271.216003,266.957031 
	C271.216003,315.186188 271.216003,363.415314 271.216003,412.076111 
	C328.808014,412.076111 385.875946,412.076111 443.579224,412.076111 
	C443.579224,550.169006 443.579224,687.830017 443.579224,826.000000 
	C446.163330,826.000000 448.127899,826.000000 450.092438,826.000000 
	C505.563385,826.000000 561.034363,826.006714 616.505310,825.992676 
	C624.664490,825.990662 632.823730,825.890198 641.471008,825.830444 
	C641.825806,825.643494 641.926025,825.364929 641.876099,824.063293 
	C641.876099,686.841675 641.876099,549.620056 641.876099,411.811218 
	C699.617371,411.811218 756.654419,411.811218 813.634766,411.811218 
	C813.634766,362.666229 813.634766,314.110504 813.634766,265.135834 
	C811.142639,265.135834 809.003967,265.135834 806.865234,265.135834 
	C630.586670,265.135834 454.308136,265.135345 278.029602,265.141907 
	C276.032562,265.141998 274.035553,265.233551 271.580872,265.246338 
z"/>
<path fill="#FFFFFF" opacity="1.000000" stroke="none" 
	d="
M640.982910,825.835327 
	C632.823730,825.890198 624.664490,825.990662 616.505310,825.992676 
	C561.034363,826.006714 505.563385,826.000000 450.092438,826.000000 
	C448.127899,826.000000 446.163330,826.000000 443.579224,826.000000 
	C443.579224,687.830017 443.579224,550.169006 443.579224,412.076111 
	C385.875946,412.076111 328.808014,412.076111 271.216003,412.076111 
	C271.216003,363.415314 271.216003,315.186188 271.418579,266.403656 
	C271.809875,265.697449 271.949005,265.508148 272.038513,265.282379 
	C274.035553,265.233551 276.032562,265.141998 278.029602,265.141907 
	C454.308136,265.135345 630.586670,265.135834 806.865234,265.135834 
	C809.003967,265.135834 811.142639,265.135834 813.634766,265.135834 
	C813.634766,314.110504 813.634766,362.666229 813.634766,411.811218 
	C756.654419,411.811218 699.617371,411.811218 641.876099,411.811218 
	C641.876099,549.620056 641.876099,686.841675 641.674072,824.651001 
	C641.286377,825.419067 641.123352,825.617981 640.982910,825.835327 
z"/>
<path fill="#E1E6E4" opacity="1.000000" stroke="none" 
	d="
M271.809692,265.264343 
	C271.949005,265.508148 271.809875,265.697449 271.467346,265.939056 
	C271.150665,265.681061 271.239777,265.420563 271.809692,265.264343 
z"/>
<path fill="#E9EDEB" opacity="1.000000" stroke="none" 
	d="
M641.226929,825.832886 
	C641.123352,825.617981 641.286377,825.419067 641.621826,825.116760 
	C641.926025,825.364929 641.825806,825.643494 641.226929,825.832886 
z"/>
</svg>